<?xml version="1.0" encoding="UTF-8"?>
<!-- Created with Inkscape (http://www.inkscape.org/) -->
<svg width="78.65mm" height="5.4982mm" version="1.1" viewBox="0 0 78.65 5.4982" xmlns="http://www.w3.org/2000/svg">
 <g transform="translate(-88.268 -49.77)">
  <text x="98.680397" y="54.499691" font-family="Cinzel" font-size="6.0964px" letter-spacing="0px" stroke-width=".031752" style="line-height:1.25" xml:space="preserve"><tspan x="98.680397" y="54.499691" fill="#ffffff" font-family="Montserrat" stroke-width=".031752">book@360travel.co.uk</tspan></text>
  <path d="m88.929 49.77c-0.36518 0-0.66146 0.29628-0.66146 0.66146 0 0.20808 0.09784 0.40376 0.26458 0.52917l2.9986 2.249c0.1571 0.11713 0.37207 0.11713 0.52917 0l2.9986-2.249c0.16674-0.1254 0.26458-0.32108 0.26458-0.52917 0-0.36518-0.29628-0.66146-0.66146-0.66146zm-0.66146 1.5434v2.8663c0 0.48645 0.3955 0.88194 0.88194 0.88194h5.2917c0.48645 0 0.88194-0.3955 0.88194-0.88194v-2.8663l-2.9986 2.249c-0.31419 0.23564-0.74414 0.23564-1.0583 0z" fill="#fff" stroke-width=".01378"/>
 </g>
</svg>
