<?xml version="1.0" encoding="UTF-8"?>
<!-- Created with Inkscape (http://www.inkscape.org/) -->
<svg width="68.227mm" height="5.2917mm" version="1.1" viewBox="0 0 68.227 5.2917" xmlns="http://www.w3.org/2000/svg">
 <g transform="translate(21.059 -72.472)">
  <text x="-12.989137" y="77.698097" font-family="Montserrat" font-size="7.2988px" letter-spacing="0px" stroke-width=".038015" style="line-height:1.25" xml:space="preserve"><tspan x="-12.989137" y="77.698097" fill="#ffffff" font-family="Montserrat" stroke-width=".038015">+44 20 7437 3601</tspan></text>
  <text x="24.784422" y="264.36719" font-family="Cinzel" font-size="50.8px" letter-spacing="0px" stroke-width=".26458" style="line-height:1.25" xml:space="preserve"><tspan x="24.784422" y="264.36719" stroke-width=".26458"/></text>
  <path d="m-19.355 72.727c-0.07958-0.19223-0.28938-0.29454-0.48987-0.23977l-0.90947 0.24804c-0.17983 0.04961-0.30488 0.2129-0.30488 0.39892 0 2.5568 2.0732 4.63 4.63 4.63 0.18603 0 0.34932-0.12505 0.39892-0.30488l0.24804-0.90947c0.05477-0.2005-0.04754-0.41029-0.23977-0.48987l-0.99214-0.41339c-0.16846-0.07028-0.36379-0.0217-0.4785 0.11988l-0.41753 0.50951c-0.72757-0.34415-1.3167-0.93324-1.6608-1.6608l0.50951-0.41649c0.14159-0.11575 0.19016-0.31004 0.11988-0.4785l-0.41339-0.99214z" fill="#fff" stroke-width=".010335"/>
 </g>
</svg>
